<mxfile host="app.diagrams.net" modified="2022-12-02T07:07:13.694Z" agent="5.0 (Macintosh)" version="20.6.0" etag="FwpdsuYsyjJNglvs-k7M" type="github">
  <diagram id="jzRgrjTGtBOBgq0wE0Cj" name="Sayfa -1">
    <mxGraphModel dx="2253" dy="715" grid="1" gridSize="10" guides="1" tooltips="1" connect="1" arrows="1" fold="1" page="1" pageScale="1" pageWidth="827" pageHeight="1169" math="0" shadow="0">
      <root>
        <mxCell id="0" />
        <mxCell id="1" parent="0" />
        <mxCell id="hrvVhJbPhJwx5Wb261zs-1" value="&lt;div&gt;START&lt;br&gt;&lt;/div&gt;" style="ellipse;whiteSpace=wrap;html=1;fillColor=#dae8fc;strokeColor=#6c8ebf;" vertex="1" parent="1">
          <mxGeometry x="354" y="20" width="120" height="80" as="geometry" />
        </mxCell>
        <mxCell id="hrvVhJbPhJwx5Wb261zs-8" style="edgeStyle=orthogonalEdgeStyle;rounded=0;orthogonalLoop=1;jettySize=auto;html=1;exitX=0.5;exitY=1;exitDx=0;exitDy=0;" edge="1" parent="1" source="hrvVhJbPhJwx5Wb261zs-3" target="hrvVhJbPhJwx5Wb261zs-6">
          <mxGeometry relative="1" as="geometry" />
        </mxCell>
        <mxCell id="hrvVhJbPhJwx5Wb261zs-3" value="CONNECT TO CAM1" style="rounded=0;whiteSpace=wrap;html=1;fontFamily=Helvetica;fontSize=12;fontColor=default;align=center;strokeColor=default;fillColor=default;" vertex="1" parent="1">
          <mxGeometry x="326" y="150" width="176" height="60" as="geometry" />
        </mxCell>
        <mxCell id="hrvVhJbPhJwx5Wb261zs-5" value="" style="endArrow=classic;html=1;rounded=0;exitX=0.5;exitY=1;exitDx=0;exitDy=0;entryX=0.5;entryY=0;entryDx=0;entryDy=0;" edge="1" parent="1" source="hrvVhJbPhJwx5Wb261zs-1" target="hrvVhJbPhJwx5Wb261zs-3">
          <mxGeometry width="50" height="50" relative="1" as="geometry">
            <mxPoint x="390" y="390" as="sourcePoint" />
            <mxPoint x="440" y="340" as="targetPoint" />
          </mxGeometry>
        </mxCell>
        <mxCell id="hrvVhJbPhJwx5Wb261zs-10" style="edgeStyle=orthogonalEdgeStyle;rounded=0;orthogonalLoop=1;jettySize=auto;html=1;entryX=0.5;entryY=0;entryDx=0;entryDy=0;" edge="1" parent="1" source="hrvVhJbPhJwx5Wb261zs-6" target="hrvVhJbPhJwx5Wb261zs-9">
          <mxGeometry relative="1" as="geometry" />
        </mxCell>
        <mxCell id="hrvVhJbPhJwx5Wb261zs-6" value="&lt;div&gt;CAPTURE AND READ VİDEO &lt;br&gt;&lt;/div&gt;&lt;div&gt;FROM CAM1&lt;/div&gt;" style="shape=parallelogram;perimeter=parallelogramPerimeter;whiteSpace=wrap;html=1;fixedSize=1;" vertex="1" parent="1">
          <mxGeometry x="309" y="250" width="210" height="60" as="geometry" />
        </mxCell>
        <mxCell id="hrvVhJbPhJwx5Wb261zs-21" style="edgeStyle=orthogonalEdgeStyle;rounded=0;orthogonalLoop=1;jettySize=auto;html=1;entryX=0.5;entryY=0;entryDx=0;entryDy=0;" edge="1" parent="1" source="hrvVhJbPhJwx5Wb261zs-9" target="hrvVhJbPhJwx5Wb261zs-20">
          <mxGeometry relative="1" as="geometry" />
        </mxCell>
        <mxCell id="hrvVhJbPhJwx5Wb261zs-9" value="CONVERT THE VİDEO TO GRAY SCALE" style="rounded=0;whiteSpace=wrap;html=1;" vertex="1" parent="1">
          <mxGeometry x="354" y="350" width="120" height="60" as="geometry" />
        </mxCell>
        <mxCell id="hrvVhJbPhJwx5Wb261zs-11" value="&lt;div align=&quot;left&quot;&gt;CONDİTİONS&lt;/div&gt;&lt;div align=&quot;left&quot;&gt;&lt;br&gt;&lt;/div&gt;&lt;div align=&quot;left&quot;&gt;1- MUST BE RECTANGLE&lt;/div&gt;&lt;div align=&quot;left&quot;&gt;2-&amp;nbsp; SHORT EDGE MUST BE AT LEAST &lt;br&gt;&lt;/div&gt;&lt;div align=&quot;left&quot;&gt;&amp;nbsp;&amp;nbsp;&amp;nbsp;&amp;nbsp; THREE TIMES OTHER EDGE&lt;/div&gt;&lt;div align=&quot;left&quot;&gt;3- All three color volues must be between &lt;br&gt;&lt;/div&gt;&lt;div align=&quot;left&quot;&gt;&amp;nbsp;&amp;nbsp;&amp;nbsp; 100 and 200 for RGB&lt;/div&gt;&lt;div align=&quot;left&quot;&gt;&lt;br&gt;&lt;/div&gt;&lt;div align=&quot;left&quot;&gt;&lt;br&gt;&lt;/div&gt;&lt;div align=&quot;left&quot;&gt;&lt;br&gt;&lt;/div&gt;" style="text;html=1;resizable=0;autosize=1;align=left;verticalAlign=middle;points=[];fillColor=none;strokeColor=none;rounded=0;" vertex="1" parent="1">
          <mxGeometry x="-270" y="30" width="240" height="160" as="geometry" />
        </mxCell>
        <mxCell id="hrvVhJbPhJwx5Wb261zs-12" value="BLUR THE GRAY VİDEO X2" style="rounded=0;whiteSpace=wrap;html=1;" vertex="1" parent="1">
          <mxGeometry x="354" y="540" width="120" height="60" as="geometry" />
        </mxCell>
        <mxCell id="hrvVhJbPhJwx5Wb261zs-14" value="LOW VALUE" style="shape=parallelogram;perimeter=parallelogramPerimeter;whiteSpace=wrap;html=1;fixedSize=1;" vertex="1" parent="1">
          <mxGeometry x="-260" y="340" width="120" height="60" as="geometry" />
        </mxCell>
        <mxCell id="hrvVhJbPhJwx5Wb261zs-16" value="HİGH VALUE" style="shape=parallelogram;perimeter=parallelogramPerimeter;whiteSpace=wrap;html=1;fixedSize=1;" vertex="1" parent="1">
          <mxGeometry x="-110" y="340" width="120" height="60" as="geometry" />
        </mxCell>
        <mxCell id="hrvVhJbPhJwx5Wb261zs-17" value="" style="rounded=0;whiteSpace=wrap;html=1;" vertex="1" parent="1">
          <mxGeometry x="-400" y="500" width="120" height="60" as="geometry" />
        </mxCell>
        <mxCell id="hrvVhJbPhJwx5Wb261zs-18" value="Median Value" style="shape=parallelogram;perimeter=parallelogramPerimeter;whiteSpace=wrap;html=1;fixedSize=1;" vertex="1" parent="1">
          <mxGeometry x="-190" y="150" width="120" height="60" as="geometry" />
        </mxCell>
        <mxCell id="hrvVhJbPhJwx5Wb261zs-19" value="Get &quot;Np.median&quot; value from Gray Video " style="rounded=0;whiteSpace=wrap;html=1;" vertex="1" parent="1">
          <mxGeometry x="-200" y="250" width="120" height="60" as="geometry" />
        </mxCell>
        <mxCell id="hrvVhJbPhJwx5Wb261zs-22" style="edgeStyle=orthogonalEdgeStyle;rounded=0;orthogonalLoop=1;jettySize=auto;html=1;entryX=0.5;entryY=0;entryDx=0;entryDy=0;" edge="1" parent="1" source="hrvVhJbPhJwx5Wb261zs-20" target="hrvVhJbPhJwx5Wb261zs-12">
          <mxGeometry relative="1" as="geometry" />
        </mxCell>
        <mxCell id="hrvVhJbPhJwx5Wb261zs-20" value="Gray video" style="shape=parallelogram;perimeter=parallelogramPerimeter;whiteSpace=wrap;html=1;fixedSize=1;" vertex="1" parent="1">
          <mxGeometry x="354" y="440" width="120" height="60" as="geometry" />
        </mxCell>
      </root>
    </mxGraphModel>
  </diagram>
</mxfile>
